<svg xmlns="http://www.w3.org/2000/svg"
 xmlns:xlink="http://www.w3.org/1999/xlink"
 width="11px" height="17px"  viewBox="0 0 11 17">
<path fill-rule="evenodd"  fill="#dddddd"
 d="M1.9998779,14.835449 C1.9998779,14.96167 2.0549316,15.073853 2.1374512,15.157959 C2.1374512,15.157959 2.824707,15.859375 2.824707,15.859375 C2.9071045,15.943481 3.0308838,15.999878 3.1408691,15.999878 C3.2507324,15.999878 3.3745117,15.943481 3.4569092,15.859375 C3.4569092,15.859375 9.862549,9.32251 9.862549,9.32251 C9.944946,9.237915 9.999878,9.111816 9.999878,8.999512 C9.999878,8.887207 9.944946,8.761108 9.862549,8.677002 C9.862549,8.677002 3.4569092,2.1396484 3.4569092,2.1396484 C3.3745117,2.055542 3.2507324,1.9996338 3.1408691,1.9996338 C3.0308838,1.9996338 2.9071045,2.055542 2.824707,2.1396484 C2.824707,2.1396484 2.1374512,2.8414307 2.1374512,2.8414307 C2.0549316,2.925537 1.9998779,3.0517578 1.9998779,3.1639404 C1.9998779,3.276245 2.0549316,3.4024658 2.1374512,3.4865723 C2.1374512,3.4865723 7.5394287,8.999512 7.5394287,8.999512 C7.5394287,8.999512 2.1374512,14.512573 2.1374512,14.512573 C2.0549316,14.59668 1.9998779,14.723145 1.9998779,14.835449 Z"/>
</svg>